<svg width="188" height="144" viewBox="0 0 188 144" fill="none" xmlns="http://www.w3.org/2000/svg">
<path d="M63.863 47.0931C65.2084 31.0671 91.1332 0 91.1332 0C96.6696 5.67908 96.9825 6.86346 98.7582 9.84836C102.077 17.7271 95.6186 26.4115 95.6186 26.4115C87.6346 38.2296 84.4055 42.7062 84.4055 42.7062C71.757 58.2845 85.5714 68.7594 85.5714 68.7594C95.7082 76.1908 105.217 69.7442 105.217 69.7442C114.636 63.8354 112.662 54.1661 112.662 54.1661C112.214 47.0036 105.217 38.8564 105.217 38.8564C100.911 34.5588 99.4755 26.4115 99.4755 26.4115C99.0269 21.935 103.333 17.1899 103.333 17.1899C114.008 31.6938 117.686 49.3314 117.686 49.3314C118.941 62.8506 106.383 71.1767 106.383 71.1767C90.4158 80.6671 74.3583 71.1767 74.3583 71.1767C61.0821 63.2982 63.863 47.0931 63.863 47.0931Z" fill="url(#paint0_linear)"/>
<path d="M0.042788 94.7652C0.128364 99.4196 0.385091 104.074 1.62594 108.558C2.18218 110.479 3.67976 113.255 5.09176 113.255C5.56243 113.255 5.90473 112.913 5.90473 112.358C5.90473 111.163 5.51964 109.882 5.51964 108.686C5.73358 99.1634 8.1297 92.0323 13.9489 85.3709C14.6762 84.5168 15.9599 83.492 16.6017 83.492C16.9868 83.492 17.3291 83.8336 17.3291 84.4741C17.3291 89.0432 14.4623 94.6371 10.9965 98.3948C10.6114 98.7791 10.4402 99.078 10.4402 99.3343C10.3975 99.6332 10.6542 99.8467 11.1249 100.146C12.8364 101.256 13.4354 103.732 13.4354 105.312C13.4354 106.209 13.1359 107.149 12.4941 107.96C10.3547 110.65 8.38643 113.895 8.38643 117.312C8.38643 119.703 8.8571 121.454 10.8681 121.454C13.307 121.454 14.7618 120.301 15.1041 118.336C15.8743 115.604 16.2166 112.956 16.2166 110.138C16.2166 109.625 16.2166 109.113 16.2166 108.558C16.2166 105.398 16.0455 101.512 13.5638 99.7613C13.1359 99.4624 12.9647 99.1634 12.9647 98.8645C12.9647 98.6083 13.1359 98.3094 13.3926 97.9678C16.0882 94.5944 18.3988 89.7264 18.3988 85.9687C18.3988 85.5844 18.8267 82.6807 16.7301 82.6807C16.0455 82.6807 15.4464 83.1504 14.8474 83.5774C8.98546 89.4275 5.56243 96.8149 4.9634 104.928C4.9634 105.398 4.66388 105.825 4.49273 106.295C3.46582 103.861 3.5514 101.512 3.5514 98.9072C3.5514 96.9857 3.80812 95.0641 3.80812 93.1425C3.80812 91.8188 2.99515 90.4096 1.02691 90.4096C0.0427879 90.4096 0 91.221 0 92.5874C0 93.3133 0.042788 94.0393 0.042788 94.7652ZM13.8633 110.778C13.3498 114.066 13.1359 120.215 10.483 120.215C9.07103 120.215 9.28497 118.465 9.28497 117.61C9.96958 114.579 11.0821 111.76 12.8364 109.156C12.9219 109.027 13.2642 108.985 13.521 108.942C13.5638 108.942 13.7349 109.369 13.7349 109.583C13.7349 109.711 13.7349 109.796 13.7349 109.924C13.7349 110.18 13.6493 110.778 13.8633 110.778ZM22.8166 104.928C22.346 108.088 24.5282 114.28 28.6786 113.938C32.829 113.511 33.642 107.405 33.5136 104.33C33.3853 101.213 32.7862 96.0889 28.8497 95.7046C24.0147 95.2776 23.1589 101.555 22.8166 104.928ZM25.17 104.715C25.3839 102.323 25.5551 97.0284 29.0209 96.8576C32.3156 96.7295 32.7862 102.793 32.6579 105.056C32.4439 106.978 31.8021 113.084 27.8656 112.572C24.9988 112.187 25.2556 106.764 25.17 104.715ZM61.884 106.423C59.1884 108.515 57.1346 108.814 54.3533 110.864C54.0966 111.034 53.8399 111.12 53.6259 111.12C53.2409 111.12 52.9413 110.821 52.9413 110.309C52.9413 109.924 52.9841 109.583 52.9841 109.241C52.9841 106.551 51.4438 104.245 51.0587 101.64C50.7592 99.804 49.5183 99.0353 47.5501 99.0353C44.6833 99.0353 42.3727 100.359 40.8324 102.622C40.105 103.69 38.1367 107.149 38.1367 109.54C38.1367 110.992 39.1208 112.145 40.2333 112.145C41.6881 112.145 45.539 109.027 48.0207 107.277C48.1919 107.191 48.3202 107.149 48.4486 107.149C49.3899 107.149 48.9621 111.12 49.3472 112.7C49.4327 113.127 49.5183 113.554 49.5183 113.938C49.5183 115.39 48.7909 116.628 47.8068 117.824C45.9241 120.087 44.1698 122.436 42.5439 124.87C39.7627 129.054 37.4093 132.94 37.4093 138.577C37.4093 141.566 39.5487 144 42.3299 144C42.7578 144 43.1857 143.957 43.6136 143.786C51.2726 141.054 53.3264 136.655 53.3264 125.51C53.3264 122.35 53.2409 119.19 53.2409 116.073C53.2409 112.102 56.3644 110.864 59.9586 108.899C62.483 107.533 62.3975 105.996 61.884 106.423ZM48.9621 135.075C48.0207 138.064 46.0953 140.413 43.0573 141.609C42.4583 141.865 41.9021 141.993 41.4314 141.993C39.7199 141.993 38.9497 140.541 38.9497 137.936C38.9497 137.082 39.0781 136.271 39.3348 135.502C41.4742 129.396 44.6833 123.802 48.577 118.635C48.7481 118.422 49.176 118.379 49.5183 118.251C49.775 119.062 49.8178 119.746 49.8178 120.642C49.8178 121.624 49.8178 122.649 49.8178 123.674C49.989 124.955 50.0745 126.279 50.0745 127.56C50.0745 130.079 49.7322 132.599 48.9621 135.075ZM49.5611 104.458C46.6515 106.423 43.6564 108.344 40.6612 110.223C40.6184 110.266 40.5328 110.266 40.4901 110.266C40.2333 110.266 39.8055 110.095 39.8055 109.54C40.6612 105.654 43.2285 100.017 48.0207 100.017C49.2616 100.017 50.1601 101 50.1601 103.049C50.1601 103.562 49.9034 104.245 49.5611 104.458ZM87.7948 106.209C87.7092 106.038 87.5808 105.953 87.4525 105.953C86.5111 105.953 82.8314 111.803 80.7347 114.835C79.9211 116.031 78.1247 118.08 76.6699 118.08C75.5146 118.08 75.1295 115.945 75.1295 114.792C75.1295 112.145 76.3276 109.455 77.055 106.807C77.1834 106.337 77.2689 105.91 77.2689 105.526C77.2689 104.33 75.8141 102.878 73.9315 102.878C73.2469 102.878 72.5623 103.135 71.9632 103.69C69.781 105.739 67.7272 107.875 65.5023 109.882C64.8604 110.437 64.347 111.376 63.3625 111.376C62.5924 111.376 62.3784 109.027 62.3784 108.515C62.3784 105.014 66.7859 98.5229 69.4815 98.5229C71.0219 98.5229 71.6209 99.8467 71.6209 100.957C71.6209 101.213 71.5781 101.512 71.5781 101.768C71.5781 101.896 71.9204 102.409 72.1772 102.409C72.819 102.409 73.0329 101.17 73.0329 100.573C73.0329 98.9499 71.2358 97.1992 69.5671 97.1992C65.9301 97.1992 62.4212 102.793 60.6241 106.508C60.1962 107.405 60.0251 108.515 60.0251 109.497C60.0251 111.504 60.9664 113.084 63.3625 113.084C65.7162 113.084 67.7272 109.839 69.6955 107.789C69.995 107.49 71.0647 106.38 71.5781 106.38C71.6637 106.38 72.0488 106.594 72.0488 106.679C71.6209 108.729 71.1503 110.949 71.1503 113.041C71.1503 116.415 72.6906 120.471 76.242 120.471C77.9535 120.471 79.6651 119.361 80.9052 117.61C83.0025 114.664 85.0991 111.675 87.1101 108.643C87.4524 108.131 87.9659 107.618 88.0087 106.935C88.0087 106.722 87.9231 106.465 87.7948 106.209ZM112.227 102.622C112.142 101.597 112.227 100.615 112.056 99.6332C111.799 98.2667 111.2 94.6371 110.387 94.6371C109.917 94.6371 109.917 95.2776 109.703 95.8327C108.719 98.2667 106.023 102.708 104.525 102.708C103.413 102.708 101.873 100.872 101.873 99.2488C101.958 97.9251 101.915 96.5586 102.172 95.2349C102.643 92.8009 103.969 90.5377 105.338 88.4454C105.852 87.6767 106.109 87.0789 106.109 86.5665C106.109 86.0541 105.039 84.0471 103.798 84.0471C103.499 84.0471 103.199 84.3033 102.9 84.8584C101.017 88.36 98.7063 92.8863 98.7063 96.7722C98.7063 99.8467 100.247 102.238 103.071 103.69C103.884 104.117 104.525 104.33 105.082 104.33C106.151 104.33 106.793 103.562 107.606 102.024C108.334 100.615 109.104 99.2488 109.874 97.8824C110.601 98.9499 110.687 100.487 110.687 101.896C110.687 102.494 110.687 103.049 110.687 103.519C110.687 104.885 110.302 113.255 105.852 113.255C103.969 113.255 103.456 112.187 103.242 110.906C103.242 110.394 103.156 110.266 102.985 110.01C102.301 110.693 102.301 110.65 102.301 111.291C102.301 111.504 102.343 111.718 102.472 111.846C103.456 113.255 104.568 114.109 105.895 114.109C110.345 114.109 112.27 107.618 112.27 103.946C112.27 103.519 112.27 103.092 112.227 102.622ZM138.8 106.85C136.233 109.454 133.708 112.145 131.184 114.835C130.799 115.262 130.413 115.433 130.071 115.433C128.702 115.433 127.504 113.468 127.504 113.255C127.504 112.401 128.702 110.522 129.215 108.814C129.814 106.679 130.713 104.245 130.713 102.067C130.713 99.3769 128.146 96.9003 125.151 96.9003C121.856 96.9003 118.732 100.231 117.962 103.562C117.919 103.733 117.834 104.757 117.834 105.868C117.834 107.277 118.005 108.985 118.775 108.985C119.717 108.985 119.545 106.252 119.717 104.971C119.93 101.384 121.941 99.8467 123.739 98.9926C123.867 98.9499 123.995 98.9072 124.166 98.9072C125.835 98.9072 126.22 100.402 126.22 101.427C126.22 101.726 126.22 101.982 126.135 102.195C125.536 104.202 124.894 106.166 124.166 108.088C123.525 109.753 121.856 112.102 121.856 113.554C121.856 114.749 123.268 116.116 124.509 116.116C125.236 116.116 126.391 115.134 127.076 115.134C127.718 115.134 128.873 116.031 128.873 117.098C128.873 117.525 128.659 117.995 128.36 118.422C124.808 123.93 120.444 130.72 120.444 136.954C120.444 139.773 121.171 143.061 123.439 143.061C125.621 143.061 128.702 139.687 129.387 136.57C130.328 132.385 131.355 128.2 131.355 123.845C131.355 122.35 131.226 120.813 130.927 119.276C130.884 119.105 130.841 118.892 130.841 118.721C130.841 117.952 131.141 116.97 131.612 116.372C133.665 113.767 139.87 106.85 140.34 106.85C140.383 106.85 140.383 106.85 140.383 106.85C140.383 106.722 140.383 106.593 140.383 106.465C140.383 105.996 140.298 105.91 140.298 105.569C140.298 105.398 140.34 105.184 140.383 104.885C140.126 105.526 139.313 106.337 138.8 106.85ZM127.846 136.57C127.29 138.833 125.108 142.121 123.14 142.121C121.685 142.121 121.428 139.901 121.428 139.132C121.428 135.374 122.198 131.83 123.995 128.585C125.322 126.151 127.975 120.728 129.044 120.728C129.986 120.728 129.772 122.991 129.772 123.418C129.772 124.144 129.729 124.87 129.686 125.553C129.686 125.553 129.686 125.596 129.686 125.638C129.686 126.407 128.788 133.197 127.846 136.57ZM161.876 106.423C159.18 108.515 157.127 108.814 154.345 110.864C154.089 111.034 153.832 111.12 153.618 111.12C153.233 111.12 152.933 110.821 152.933 110.309C152.933 109.924 152.976 109.583 152.976 109.241C152.976 106.551 151.436 104.245 151.051 101.64C150.751 99.804 149.51 99.0353 147.542 99.0353C144.675 99.0353 142.365 100.359 140.824 102.622C140.097 103.69 138.129 107.149 138.129 109.54C138.129 110.992 139.113 112.145 140.225 112.145C141.68 112.145 145.531 109.027 148.013 107.277C148.184 107.191 148.312 107.149 148.441 107.149C149.382 107.149 148.954 111.12 149.339 112.7C149.425 113.127 149.51 113.554 149.51 113.938C149.51 115.39 148.783 116.628 147.799 117.824C145.916 120.087 144.162 122.436 142.536 124.87C139.755 129.054 137.401 132.94 137.401 138.577C137.401 141.566 139.541 144 142.322 144C142.75 144 143.178 143.957 143.606 143.786C151.265 141.054 153.318 136.655 153.318 125.51C153.318 122.35 153.233 119.19 153.233 116.073C153.233 112.102 156.356 110.864 159.951 108.899C162.475 107.533 162.389 105.996 161.876 106.423ZM148.954 135.075C148.013 138.064 146.087 140.413 143.049 141.609C142.45 141.865 141.894 141.993 141.423 141.993C139.712 141.993 138.941 140.541 138.941 137.936C138.941 137.082 139.07 136.271 139.327 135.502C141.466 129.396 144.675 123.802 148.569 118.635C148.74 118.422 149.168 118.379 149.51 118.251C149.767 119.062 149.81 119.746 149.81 120.642C149.81 121.624 149.81 122.649 149.81 123.674C149.981 124.955 150.067 126.279 150.067 127.56C150.067 130.079 149.724 132.599 148.954 135.075ZM149.553 104.458C146.643 106.423 143.648 108.344 140.653 110.223C140.61 110.266 140.525 110.266 140.482 110.266C140.225 110.266 139.797 110.095 139.797 109.54C140.653 105.654 143.22 100.017 148.013 100.017C149.254 100.017 150.152 101 150.152 103.049C150.152 103.562 149.895 104.245 149.553 104.458ZM187.786 106.209C187.7 106.038 187.572 105.953 187.444 105.953C186.502 105.953 182.823 111.803 180.726 114.835C179.913 116.031 178.116 118.08 176.661 118.08C175.506 118.08 175.121 115.945 175.121 114.792C175.121 112.145 176.319 109.455 177.046 106.807C177.175 106.337 177.26 105.91 177.26 105.526C177.26 104.33 175.805 102.878 173.923 102.878C173.238 102.878 172.554 103.135 171.955 103.69C169.772 105.739 167.719 107.875 165.494 109.882C164.852 110.437 164.338 111.376 163.354 111.376C162.584 111.376 162.37 109.027 162.37 108.515C162.37 105.014 166.777 98.5229 169.473 98.5229C171.013 98.5229 171.612 99.8467 171.612 100.957C171.612 101.213 171.569 101.512 171.569 101.768C171.569 101.896 171.912 102.409 172.168 102.409C172.81 102.409 173.024 101.17 173.024 100.573C173.024 98.9499 171.227 97.1992 169.558 97.1992C165.921 97.1992 162.413 102.793 160.616 106.508C160.188 107.405 160.017 108.515 160.017 109.497C160.017 111.504 160.958 113.084 163.354 113.084C165.708 113.084 167.719 109.839 169.687 107.789C169.986 107.49 171.056 106.38 171.569 106.38C171.655 106.38 172.04 106.594 172.04 106.679C171.612 108.729 171.142 110.949 171.142 113.041C171.142 116.415 172.682 120.471 176.233 120.471C177.945 120.471 179.656 119.361 180.897 117.61C182.994 114.664 185.09 111.675 187.101 108.643C187.444 108.131 187.957 107.618 188 106.935C188 106.722 187.914 106.465 187.786 106.209Z" fill="url(#paint1_linear)"/>
<defs>
<linearGradient id="paint0_linear" x1="121.661" y1="37.9133" x2="67.5892" y2="50.5996" gradientUnits="userSpaceOnUse">
<stop stop-color="#018EBE"/>
<stop offset="0.0001" stop-color="#018EBE" stop-opacity="0.4"/>
<stop offset="1" stop-color="#018EBE"/>
</linearGradient>
<linearGradient id="paint1_linear" x1="90.697" y1="74.7275" x2="90.697" y2="130.106" gradientUnits="userSpaceOnUse">
<stop stop-color="#1B1B1B"/>
<stop offset="1" stop-color="#018EBE"/>
</linearGradient>
</defs>
</svg>
