<svg width="180" height="137" viewBox="0 0 180 137" fill="none" xmlns="http://www.w3.org/2000/svg">
<path d="M2.45727 90.3012C2.53783 94.7054 2.77951 99.1096 3.94762 103.352C4.47126 105.17 5.88105 107.797 7.21028 107.797C7.65336 107.797 7.97559 107.474 7.97559 106.948C7.97559 105.817 7.61308 104.605 7.61308 103.473C7.81447 94.463 10.0701 87.7153 15.5482 81.412C16.2329 80.6039 17.4413 79.6342 18.0455 79.6342C18.408 79.6342 18.7303 79.9574 18.7303 80.5635C18.7303 84.8869 16.0315 90.18 12.7689 93.7357C12.4064 94.0993 12.2452 94.3822 12.2452 94.6246C12.205 94.9075 12.4466 95.1095 12.8897 95.3923C14.5009 96.4429 15.0648 98.7864 15.0648 100.281C15.0648 101.13 14.7829 102.019 14.1787 102.787C12.1647 105.332 10.3118 108.403 10.3118 111.635C10.3118 113.898 10.7549 115.555 12.648 115.555C14.944 115.555 16.3135 114.464 16.6357 112.605C17.3608 110.019 17.683 107.514 17.683 104.847C17.683 104.362 17.683 103.877 17.683 103.352C17.683 100.362 17.5219 96.6853 15.1857 95.0287C14.7829 94.7458 14.6217 94.463 14.6217 94.1801C14.6217 93.9377 14.7829 93.6549 15.0245 93.3316C17.5622 90.1396 19.7373 85.5334 19.7373 81.9777C19.7373 81.614 20.1401 78.8665 18.1664 78.8665C17.5219 78.8665 16.958 79.3109 16.3941 79.715C10.8757 85.2505 7.65336 92.2407 7.08944 99.9177C7.08944 100.362 6.80748 100.766 6.64636 101.211C5.67965 98.9076 5.76021 96.6853 5.76021 94.2206C5.76021 92.4023 6.00189 90.5841 6.00189 88.7658C6.00189 87.5132 5.23657 86.1799 3.38371 86.1799C2.45727 86.1799 2.41699 86.9476 2.41699 88.2405C2.41699 88.9274 2.45727 89.6143 2.45727 90.3012ZM15.4676 105.453C14.9843 108.565 14.7829 114.383 12.2855 114.383C10.9563 114.383 11.1577 112.726 11.1577 111.918C11.8022 109.049 12.8494 106.383 14.5009 103.918C14.5815 103.797 14.9037 103.756 15.1454 103.716C15.1857 103.716 15.3468 104.12 15.3468 104.322C15.3468 104.443 15.3468 104.524 15.3468 104.645C15.3468 104.888 15.2662 105.453 15.4676 105.453ZM23.8962 99.9177C23.4531 102.908 25.5073 108.767 29.4145 108.443C33.3216 108.039 34.0869 102.261 33.9661 99.3521C33.8452 96.4025 33.2813 91.5538 29.5756 91.1901C25.024 90.7861 24.2184 96.7257 23.8962 99.9177ZM26.1115 99.7157C26.3129 97.453 26.4741 92.4427 29.7367 92.2811C32.8383 92.1599 33.2813 97.8975 33.1605 100.039C32.9591 101.857 32.3549 107.635 28.6492 107.15C25.9504 106.787 26.1921 101.655 26.1115 99.7157ZM60.6734 101.332C58.1358 103.312 56.2024 103.595 53.5842 105.534C53.3425 105.696 53.1008 105.777 52.8994 105.777C52.5369 105.777 52.255 105.494 52.255 105.009C52.255 104.645 52.2952 104.322 52.2952 103.999C52.2952 101.453 50.8452 99.2712 50.4827 96.8065C50.2007 95.0691 49.0326 94.3418 47.1797 94.3418C44.481 94.3418 42.3059 95.5943 40.8558 97.7358C40.171 98.746 38.3182 102.019 38.3182 104.282C38.3182 105.655 39.2446 106.746 40.2919 106.746C41.6614 106.746 45.2866 103.797 47.6228 102.14C47.7839 102.059 47.9048 102.019 48.0256 102.019C48.9118 102.019 48.509 105.777 48.8715 107.272C48.952 107.676 49.0326 108.08 49.0326 108.443C49.0326 109.817 48.3478 110.989 47.4214 112.12C45.6491 114.262 43.9976 116.484 42.467 118.787C39.8488 122.747 37.6334 126.424 37.6334 131.757C37.6334 134.586 39.6474 136.889 42.2656 136.889C42.6684 136.889 43.0712 136.848 43.474 136.687C50.6841 134.101 52.6175 129.939 52.6175 119.393C52.6175 116.403 52.5369 113.413 52.5369 110.464C52.5369 106.706 55.4773 105.534 58.8608 103.675C61.2373 102.382 61.1568 100.928 60.6734 101.332ZM48.5089 128.444C47.6228 131.272 45.8102 133.495 42.9503 134.626C42.3864 134.869 41.8628 134.99 41.4197 134.99C39.8085 134.99 39.0835 133.616 39.0835 131.151C39.0835 130.343 39.2043 129.575 39.446 128.848C41.46 123.07 44.481 117.777 48.1464 112.888C48.3076 112.686 48.7104 112.645 49.0326 112.524C49.2743 113.292 49.3145 113.938 49.3145 114.787C49.3145 115.716 49.3145 116.686 49.3145 117.656C49.4757 118.868 49.5562 120.121 49.5562 121.333C49.5562 123.717 49.234 126.101 48.5089 128.444ZM49.0729 99.4733C46.3338 101.332 43.5143 103.15 40.6947 104.928C40.6544 104.968 40.5738 104.968 40.5336 104.968C40.2919 104.968 39.8891 104.807 39.8891 104.282C40.6947 100.605 43.1115 95.2711 47.6228 95.2711C48.7909 95.2711 49.6368 96.2004 49.6368 98.1399C49.6368 98.6248 49.3951 99.2712 49.0729 99.4733ZM85.0653 101.13C84.9848 100.968 84.8639 100.887 84.7431 100.887C83.8569 100.887 80.3929 106.423 78.4192 109.292C77.6532 110.423 75.9621 112.363 74.5926 112.363C73.505 112.363 73.1425 110.342 73.1425 109.251C73.1425 106.746 74.2704 104.201 74.9551 101.696C75.0759 101.251 75.1565 100.847 75.1565 100.483C75.1565 99.3521 73.787 97.9783 72.0147 97.9783C71.3702 97.9783 70.7257 98.2207 70.1618 98.746C68.1076 100.685 66.1741 102.706 64.0796 104.605C63.4754 105.13 62.992 106.019 62.0653 106.019C61.3402 106.019 61.1388 103.797 61.1388 103.312C61.1388 99.9985 65.288 93.8569 67.8256 93.8569C69.2757 93.8569 69.8396 95.1095 69.8396 96.16C69.8396 96.4025 69.7993 96.6853 69.7993 96.9277C69.7993 97.0489 70.1215 97.5338 70.3632 97.5338C70.9674 97.5338 71.1688 96.362 71.1688 95.7964C71.1688 94.261 69.4771 92.6043 67.9062 92.6043C64.4824 92.6043 61.1791 97.8975 59.4874 101.413C59.0846 102.261 58.9235 103.312 58.9235 104.241C58.9235 106.14 59.8096 107.635 62.0653 107.635C64.281 107.635 66.1741 104.564 68.027 102.625C68.309 102.342 69.3159 101.292 69.7993 101.292C69.8799 101.292 70.2424 101.494 70.2424 101.574C69.8396 103.514 69.3965 105.615 69.3965 107.595C69.3965 110.787 70.8466 114.625 74.1898 114.625C75.801 114.625 77.4122 113.575 78.5797 111.918C80.554 109.13 82.5277 106.302 84.4208 103.433C84.7431 102.948 85.2264 102.463 85.2667 101.817C85.2667 101.615 85.1861 101.372 85.0653 101.13ZM108.066 97.7358C107.985 96.7661 108.066 95.8368 107.905 94.9075C107.663 93.6145 107.099 90.18 106.334 90.18C105.891 90.18 105.891 90.7861 105.689 91.3114C104.763 93.6145 102.225 97.8167 100.815 97.8167C99.768 97.8167 98.318 96.0792 98.318 94.5438C98.3985 93.2912 98.3583 91.9982 98.5999 90.7457C99.043 88.4426 100.292 86.3011 101.581 84.3212C102.064 83.5939 102.306 83.0282 102.306 82.5434C102.306 82.0585 101.299 80.1594 100.131 80.1594C99.8486 80.1594 99.5666 80.4019 99.2847 80.9271C97.5124 84.2404 95.3373 88.5234 95.3373 92.2003C95.3373 95.1095 96.7873 97.3722 99.4458 98.746C100.211 99.15 100.815 99.3521 101.339 99.3521C102.346 99.3521 102.95 98.6248 103.715 97.1702C104.4 95.8368 105.125 94.5438 105.85 93.2508C106.535 94.261 106.616 95.7156 106.616 97.0489C106.616 97.6146 106.616 98.1399 106.616 98.5843C106.616 99.8773 106.253 107.797 102.064 107.797C100.292 107.797 99.8083 106.787 99.6069 105.575C99.6069 105.09 99.5264 104.968 99.3652 104.726C98.7208 105.372 98.7208 105.332 98.7208 105.938C98.7208 106.14 98.761 106.342 98.8819 106.463C99.8083 107.797 100.856 108.605 102.104 108.605C106.293 108.605 108.106 102.463 108.106 98.9884C108.106 98.5844 108.106 98.1803 108.066 97.7358ZM133.081 101.736C130.664 104.201 128.287 106.746 125.911 109.292C125.548 109.696 125.186 109.857 124.864 109.857C123.575 109.857 122.447 107.999 122.447 107.797C122.447 106.989 123.575 105.211 124.058 103.595C124.622 101.574 125.468 99.2712 125.468 97.2106C125.468 94.665 123.051 92.3215 120.231 92.3215C117.13 92.3215 114.189 95.4731 113.464 98.6248C113.424 98.7864 113.344 99.7561 113.344 100.807C113.344 102.14 113.505 103.756 114.23 103.756C115.116 103.756 114.955 101.17 115.116 99.9581C115.317 96.5641 117.21 95.1095 118.902 94.3014C119.023 94.261 119.144 94.2206 119.305 94.2206C120.876 94.2206 121.238 95.6348 121.238 96.6045C121.238 96.8873 121.238 97.1298 121.158 97.3318C120.594 99.2308 119.99 101.089 119.305 102.908C118.701 104.484 117.13 106.706 117.13 108.08C117.13 109.211 118.459 110.504 119.627 110.504C120.312 110.504 121.4 109.575 122.044 109.575C122.648 109.575 123.736 110.423 123.736 111.433C123.736 111.837 123.534 112.282 123.252 112.686C119.909 117.898 115.801 124.323 115.801 130.222C115.801 132.889 116.485 136 118.62 136C120.674 136 123.575 132.808 124.219 129.858C125.105 125.898 126.072 121.939 126.072 117.817C126.072 116.403 125.951 114.949 125.669 113.494C125.629 113.332 125.589 113.13 125.589 112.969C125.589 112.241 125.871 111.312 126.314 110.746C128.247 108.282 134.088 101.736 134.531 101.736C134.571 101.736 134.571 101.736 134.571 101.736C134.571 101.615 134.571 101.494 134.571 101.372C134.571 100.928 134.49 100.847 134.49 100.524C134.49 100.362 134.531 100.16 134.571 99.8773C134.329 100.483 133.564 101.251 133.081 101.736ZM122.769 129.858C122.245 132 120.191 135.111 118.338 135.111C116.969 135.111 116.727 133.01 116.727 132.283C116.727 128.727 117.452 125.373 119.144 122.302C120.393 119.999 122.89 114.868 123.897 114.868C124.783 114.868 124.582 117.009 124.582 117.413C124.582 118.1 124.541 118.787 124.501 119.434C124.501 119.434 124.501 119.474 124.501 119.514C124.501 120.242 123.655 126.666 122.769 129.858ZM154.804 101.332C152.266 103.312 150.333 103.595 147.715 105.534C147.473 105.696 147.231 105.777 147.03 105.777C146.667 105.777 146.386 105.494 146.386 105.009C146.386 104.645 146.426 104.322 146.426 103.999C146.426 101.453 144.976 99.2712 144.613 96.8065C144.331 95.0691 143.163 94.3418 141.31 94.3418C138.612 94.3418 136.436 95.5943 134.986 97.7358C134.302 98.746 132.449 102.019 132.449 104.282C132.449 105.655 133.375 106.746 134.422 106.746C135.792 106.746 139.417 103.797 141.753 102.14C141.914 102.059 142.035 102.019 142.156 102.019C143.042 102.019 142.64 105.777 143.002 107.272C143.083 107.676 143.163 108.08 143.163 108.443C143.163 109.817 142.478 110.989 141.552 112.12C139.78 114.262 138.128 116.484 136.598 118.787C133.979 122.747 131.764 126.424 131.764 131.757C131.764 134.586 133.778 136.889 136.396 136.889C136.799 136.889 137.202 136.848 137.605 136.687C144.815 134.101 146.748 129.939 146.748 119.393C146.748 116.403 146.667 113.413 146.667 110.464C146.667 106.706 149.608 105.534 152.991 103.675C155.368 102.382 155.287 100.928 154.804 101.332ZM142.64 128.444C141.753 131.272 139.941 133.495 137.081 134.626C136.517 134.869 135.993 134.99 135.55 134.99C133.939 134.99 133.213 133.616 133.213 131.151C133.213 130.343 133.335 129.575 133.577 128.848C135.591 123.07 138.612 117.777 142.277 112.888C142.438 112.686 142.841 112.645 143.163 112.524C143.405 113.292 143.445 113.938 143.445 114.787C143.445 115.716 143.445 116.686 143.445 117.656C143.606 118.868 143.687 120.121 143.687 121.333C143.687 123.717 143.365 126.101 142.64 128.444ZM143.203 99.4733C140.464 101.332 137.645 103.15 134.825 104.928C134.785 104.968 134.704 104.968 134.664 104.968C134.422 104.968 134.02 104.807 134.02 104.282C134.825 100.605 137.242 95.2711 141.753 95.2711C142.921 95.2711 143.767 96.2004 143.767 98.1399C143.767 98.6248 143.526 99.2712 143.203 99.4733ZM179.195 101.13C179.115 100.968 178.994 100.887 178.873 100.887C177.987 100.887 174.523 106.423 172.549 109.292C171.784 110.423 170.092 112.363 168.723 112.363C167.635 112.363 167.272 110.342 167.272 109.251C167.272 106.746 168.4 104.201 169.085 101.696C169.206 101.251 169.286 100.847 169.286 100.483C169.286 99.3521 167.917 97.9783 166.145 97.9783C165.5 97.9783 164.856 98.2207 164.292 98.746C162.237 100.685 160.304 102.706 158.21 104.605C157.605 105.13 157.122 106.019 156.196 106.019C155.47 106.019 155.269 103.797 155.269 103.312C155.269 99.9985 159.418 93.8569 161.956 93.8569C163.406 93.8569 163.97 95.1095 163.97 96.16C163.97 96.4025 163.929 96.6853 163.929 96.9277C163.929 97.0489 164.251 97.5338 164.493 97.5338C165.097 97.5338 165.299 96.362 165.299 95.7964C165.299 94.261 163.607 92.6043 162.036 92.6043C158.612 92.6043 155.309 97.8975 153.618 101.413C153.215 102.261 153.054 103.312 153.054 104.241C153.054 106.14 153.94 107.635 156.196 107.635C158.411 107.635 160.304 104.564 162.157 102.625C162.439 102.342 163.446 101.292 163.929 101.292C164.01 101.292 164.372 101.494 164.372 101.574C163.97 103.514 163.526 105.615 163.526 107.595C163.526 110.787 164.977 114.625 168.32 114.625C169.931 114.625 171.542 113.575 172.71 111.918C174.684 109.13 176.658 106.302 178.551 103.433C178.873 102.948 179.356 102.463 179.397 101.817C179.397 101.615 179.316 101.372 179.195 101.13Z" fill="#D5ECF4"/>
<path d="M62.5358 44.561C63.8024 29.3967 88.2075 0 88.2075 0C93.4193 5.37373 93.7138 6.49443 95.3854 9.31884C98.5096 16.7739 92.4299 24.9915 92.4299 24.9915C84.914 36.1741 81.8741 40.41 81.8741 40.41C69.967 55.1507 82.9717 65.0624 82.9717 65.0624C92.5142 72.0942 101.466 65.9942 101.466 65.9942C110.332 60.4031 108.474 51.2537 108.474 51.2537C108.052 44.4763 101.466 36.7671 101.466 36.7671C97.412 32.7007 96.0608 24.9915 96.0608 24.9915C95.6384 20.7556 99.6922 16.2656 99.6922 16.2656C109.741 29.9897 113.204 46.679 113.204 46.679C114.386 59.4713 102.563 67.3497 102.563 67.3497C87.5322 76.3298 72.4159 67.3497 72.4159 67.3497C59.9179 59.8948 62.5358 44.561 62.5358 44.561Z" fill="white"/>
<path d="M62.5358 44.561C63.8024 29.3967 88.2075 0 88.2075 0C93.4193 5.37373 93.7138 6.49443 95.3854 9.31884C98.5096 16.7739 92.4299 24.9915 92.4299 24.9915C84.914 36.1741 81.8741 40.41 81.8741 40.41C69.967 55.1507 82.9717 65.0624 82.9717 65.0624C92.5142 72.0942 101.466 65.9942 101.466 65.9942C110.332 60.4031 108.474 51.2537 108.474 51.2537C108.052 44.4763 101.466 36.7671 101.466 36.7671C97.412 32.7007 96.0608 24.9915 96.0608 24.9915C95.6384 20.7556 99.6922 16.2656 99.6922 16.2656C109.741 29.9897 113.204 46.679 113.204 46.679C114.386 59.4713 102.563 67.3497 102.563 67.3497C87.5322 76.3298 72.4159 67.3497 72.4159 67.3497C59.9179 59.8948 62.5358 44.561 62.5358 44.561Z" fill="url(#paint0_linear)"/>
<defs>
<linearGradient id="paint0_linear" x1="45" y1="39" x2="113" y2="36" gradientUnits="userSpaceOnUse">
<stop stop-color="#018EBE" stop-opacity="0.75"/>
<stop offset="1" stop-color="white" stop-opacity="0"/>
</linearGradient>
</defs>
</svg>
