<svg width="154" height="46" viewBox="0 0 154 46" fill="none" xmlns="http://www.w3.org/2000/svg">
<path d="M0.139083 26.7589C0.911148 17.6527 15.7863 0 15.7863 0C18.9629 3.22692 19.1424 3.89989 20.1613 5.59596C22.0657 10.0727 18.3598 15.0074 18.3598 15.0074C13.7789 21.7225 11.9259 24.2661 11.9259 24.2661C4.66852 33.1179 12.5951 39.07 12.5951 39.07C18.4113 43.2924 23.8672 39.6296 23.8672 39.6296C29.2717 36.272 28.1393 30.7778 28.1393 30.7778C27.8819 26.708 23.8672 22.0786 23.8672 22.0786C21.3966 19.6367 20.5731 15.0074 20.5731 15.0074C20.3157 12.4637 22.7863 9.7675 22.7863 9.7675C28.9114 18.0088 31.0217 28.0307 31.0217 28.0307C31.7423 35.7124 24.5363 40.4435 24.5363 40.4435C15.3745 45.836 6.16118 40.4435 6.16118 40.4435C-1.45653 35.9668 0.139083 26.7589 0.139083 26.7589Z" fill="url(#paint0_linear)"/>
<path d="M45.4865 18.0243C45.5356 20.669 45.6829 23.3137 46.3949 25.8614C46.714 26.9532 47.5733 28.5304 48.3835 28.5304C48.6535 28.5304 48.8499 28.3363 48.8499 28.0208C48.8499 27.3415 48.629 26.6135 48.629 25.9342C48.7517 20.5234 50.1266 16.4714 53.4655 12.6863C53.8829 12.201 54.6194 11.6187 54.9877 11.6187C55.2086 11.6187 55.4051 11.8128 55.4051 12.1768C55.4051 14.773 53.7601 17.9515 51.7715 20.0867C51.5506 20.305 51.4524 20.4749 51.4524 20.6205C51.4278 20.7903 51.5751 20.9116 51.8452 21.0815C52.8272 21.7123 53.1709 23.1196 53.1709 24.0174C53.1709 24.5269 52.9991 25.0607 52.6308 25.5217C51.4032 27.0503 50.2739 28.8943 50.2739 30.8354C50.2739 32.1941 50.544 33.1889 51.6979 33.1889C53.0973 33.1889 53.932 32.5338 54.1284 31.4177C54.5703 29.8649 54.7667 28.3605 54.7667 26.7591C54.7667 26.468 54.7667 26.1768 54.7667 25.8614C54.7667 24.0659 54.6685 21.8579 53.2446 20.8631C52.9991 20.6933 52.9009 20.5234 52.9009 20.3536C52.9009 20.208 52.9991 20.0381 53.1464 19.844C54.6931 17.9272 56.0188 15.1612 56.0188 13.026C56.0188 12.8076 56.2643 11.1577 55.0613 11.1577C54.6685 11.1577 54.3248 11.4246 53.9811 11.6672C50.6176 14.9913 48.6535 19.1889 48.3098 23.799C48.3098 24.0659 48.138 24.3085 48.0398 24.5754C47.4505 23.1924 47.4996 21.8579 47.4996 20.3778C47.4996 19.286 47.647 18.1941 47.647 17.1023C47.647 16.3501 47.1805 15.5494 46.0511 15.5494C45.4865 15.5494 45.4619 16.0104 45.4619 16.7868C45.4619 17.1993 45.4865 17.6118 45.4865 18.0243ZM53.4164 27.1231C53.1218 28.9914 52.9991 32.4853 51.4769 32.4853C50.6667 32.4853 50.7895 31.4905 50.7895 31.0052C51.1823 29.2825 51.8206 27.6811 52.8272 26.2011C52.8763 26.1283 53.0727 26.104 53.22 26.0797C53.2446 26.0797 53.3428 26.3224 53.3428 26.4437C53.3428 26.5165 53.3428 26.565 53.3428 26.6378C53.3428 26.7834 53.2937 27.1231 53.4164 27.1231Z" fill="url(#paint1_linear)"/>
<path d="M58.5537 23.799C58.2837 25.5945 59.5358 29.1127 61.9172 28.9186C64.2986 28.6759 64.7651 25.2063 64.6915 23.4593C64.6178 21.6881 64.2741 18.7764 62.0154 18.5581C59.2411 18.3154 58.7501 21.8822 58.5537 23.799ZM59.904 23.6777C60.0268 22.3189 60.125 19.3102 62.1136 19.2132C64.004 19.1404 64.2741 22.5858 64.2004 23.8718C64.0777 24.9636 63.7094 28.4333 61.4507 28.1421C59.8058 27.9238 59.9531 24.8423 59.904 23.6777Z" fill="url(#paint2_linear)"/>
<path d="M80.9699 24.6482C79.4232 25.8371 78.2447 26.007 76.6489 27.1716C76.5016 27.2687 76.3543 27.3172 76.2316 27.3172C76.0106 27.3172 75.8388 27.1473 75.8388 26.8562C75.8388 26.6378 75.8633 26.4437 75.8633 26.2496C75.8633 24.721 74.9795 23.4108 74.7585 21.9307C74.5867 20.8874 73.8747 20.4506 72.7453 20.4506C71.1004 20.4506 69.7747 21.2028 68.8908 22.4888C68.4735 23.0953 67.3441 25.0607 67.3441 26.4194C67.3441 27.2444 67.9088 27.8995 68.5471 27.8995C69.3818 27.8995 71.5914 26.1283 73.0154 25.1335C73.1136 25.0849 73.1872 25.0607 73.2609 25.0607C73.801 25.0607 73.5555 27.3172 73.7765 28.2149C73.8256 28.4576 73.8747 28.7002 73.8747 28.9186C73.8747 29.7435 73.4573 30.4472 72.8926 31.1266C71.8124 32.4125 70.8058 33.747 69.8729 35.13C68.2771 37.5078 66.9268 39.7158 66.9268 42.9186C66.9268 44.617 68.1543 46.0001 69.7501 46.0001C69.9956 46.0001 70.2411 45.9758 70.4866 45.8787C74.8813 44.3259 76.0597 41.8267 76.0597 35.494C76.0597 33.6985 76.0106 31.903 76.0106 30.1317C76.0106 27.8752 77.8028 27.1716 79.8651 26.0555C81.3136 25.2791 81.2645 24.4056 80.9699 24.6482ZM73.5555 40.929C73.0154 42.6274 71.9106 43.9619 70.1675 44.6413C69.8238 44.7869 69.5046 44.8597 69.2345 44.8597C68.2525 44.8597 67.8106 44.0347 67.8106 42.5546C67.8106 42.0694 67.8842 41.6084 68.0315 41.1716C69.2591 37.702 71.1004 34.5234 73.3346 31.5876C73.4328 31.4662 73.6783 31.442 73.8747 31.3692C74.022 31.8302 74.0465 32.2184 74.0465 32.7279C74.0465 33.286 74.0465 33.8683 74.0465 34.4506C74.1447 35.1786 74.1938 35.9307 74.1938 36.6586C74.1938 38.0902 73.9974 39.5217 73.5555 40.929ZM73.8992 23.5321C72.2298 24.6482 70.5112 25.7401 68.7926 26.8077C68.7681 26.8319 68.719 26.8319 68.6944 26.8319C68.5471 26.8319 68.3016 26.7349 68.3016 26.4194C68.7926 24.2115 70.2657 21.0087 73.0154 21.0087C73.7274 21.0087 74.2429 21.5667 74.2429 22.7314C74.2429 23.0226 74.0956 23.4108 73.8992 23.5321Z" fill="url(#paint3_linear)"/>
<path d="M95.8369 24.5269C95.7878 24.4298 95.7141 24.3813 95.6405 24.3813C95.1003 24.3813 92.9889 27.7054 91.786 29.4281C91.3195 30.1075 90.2883 31.2721 89.4536 31.2721C88.7907 31.2721 88.5698 30.059 88.5698 29.4038C88.5698 27.8995 89.2572 26.3709 89.6746 24.8666C89.7482 24.5997 89.7973 24.357 89.7973 24.1387C89.7973 23.4593 88.9626 22.6343 87.8823 22.6343C87.4895 22.6343 87.0967 22.7799 86.753 23.0953C85.5009 24.26 84.3225 25.4732 83.0458 26.6135C82.6775 26.929 82.3829 27.4628 81.8183 27.4628C81.3763 27.4628 81.2536 26.1283 81.2536 25.8371C81.2536 23.8475 83.7823 20.1595 85.329 20.1595C86.2129 20.1595 86.5566 20.9116 86.5566 21.5425C86.5566 21.6881 86.532 21.8579 86.532 22.0035C86.532 22.0763 86.7284 22.3674 86.8758 22.3674C87.244 22.3674 87.3668 21.6638 87.3668 21.3241C87.3668 20.4021 86.3356 19.4073 85.3781 19.4073C83.2913 19.4073 81.2781 22.5858 80.247 24.6967C80.0015 25.2063 79.9033 25.8371 79.9033 26.3952C79.9033 27.5356 80.4434 28.4333 81.8183 28.4333C83.1686 28.4333 84.3225 26.5893 85.4518 25.4246C85.6237 25.2548 86.2374 24.6239 86.532 24.6239C86.5811 24.6239 86.8021 24.7453 86.8021 24.7938C86.5566 25.9584 86.2865 27.2201 86.2865 28.409C86.2865 30.3259 87.1704 32.6309 89.2081 32.6309C90.1901 32.6309 91.1722 32 91.8842 31.0052C93.0872 29.3311 94.2901 27.6326 95.444 25.9099C95.6405 25.6187 95.9351 25.3276 95.9596 24.9394C95.9596 24.818 95.9105 24.6725 95.8369 24.5269Z" fill="url(#paint4_linear)"/>
<path d="M109.856 22.4888C109.807 21.9064 109.856 21.3484 109.758 20.7903C109.611 20.0139 109.267 17.9515 108.8 17.9515C108.53 17.9515 108.53 18.3154 108.408 18.6309C107.843 20.0139 106.296 22.5373 105.437 22.5373C104.799 22.5373 103.915 21.494 103.915 20.5719C103.964 19.8198 103.939 19.0433 104.087 18.2912C104.357 16.9082 105.118 15.6222 105.903 14.4333C106.198 13.9965 106.345 13.6569 106.345 13.3657C106.345 13.0745 105.731 11.9341 105.019 11.9341C104.848 11.9341 104.676 12.0797 104.504 12.3952C103.424 14.3848 102.098 16.9567 102.098 19.1647C102.098 20.9116 102.982 22.2704 104.602 23.0953C105.069 23.338 105.437 23.4593 105.756 23.4593C106.37 23.4593 106.738 23.0226 107.205 22.1491C107.622 21.3484 108.064 20.5719 108.506 19.7955C108.923 20.4021 108.972 21.2756 108.972 22.0763C108.972 22.416 108.972 22.7314 108.972 22.9983C108.972 23.7747 108.751 28.5304 106.198 28.5304C105.118 28.5304 104.823 27.9238 104.7 27.1959C104.7 26.9047 104.651 26.8319 104.553 26.6863C104.16 27.0746 104.16 27.0503 104.16 27.4142C104.16 27.5356 104.185 27.6569 104.258 27.7297C104.823 28.5304 105.461 29.0156 106.222 29.0156C108.776 29.0156 109.881 25.3276 109.881 23.2409C109.881 22.9983 109.881 22.7557 109.856 22.4888Z" fill="url(#paint5_linear)"/>
<path d="M125.103 24.8908C123.63 26.3709 122.181 27.8995 120.733 29.4281C120.512 29.6707 120.291 29.7678 120.095 29.7678C119.309 29.7678 118.622 28.6517 118.622 28.5304C118.622 28.0451 119.309 26.9775 119.604 26.007C119.947 24.7938 120.463 23.4108 120.463 22.1733C120.463 20.6447 118.99 19.2375 117.271 19.2375C115.381 19.2375 113.589 21.13 113.147 23.0226C113.122 23.1196 113.073 23.7019 113.073 24.3328C113.073 25.1335 113.171 26.104 113.613 26.104C114.153 26.104 114.055 24.5512 114.153 23.8232C114.276 21.7851 115.43 20.9116 116.461 20.4264C116.535 20.4021 116.608 20.3778 116.707 20.3778C117.664 20.3778 117.885 21.2271 117.885 21.8094C117.885 21.9792 117.885 22.1248 117.836 22.2461C117.492 23.3865 117.124 24.5026 116.707 25.5945C116.338 26.5408 115.381 27.8752 115.381 28.7002C115.381 29.3796 116.191 30.156 116.903 30.156C117.32 30.156 117.983 29.598 118.376 29.598C118.744 29.598 119.407 30.1075 119.407 30.7141C119.407 30.9567 119.284 31.2236 119.113 31.4662C117.075 34.5962 114.571 38.4541 114.571 41.9966C114.571 43.598 114.988 45.4663 116.289 45.4663C117.541 45.4663 119.309 43.5494 119.702 41.7782C120.242 39.4004 120.831 37.0226 120.831 34.5477C120.831 33.6985 120.757 32.825 120.586 31.9515C120.561 31.8545 120.536 31.7331 120.536 31.6361C120.536 31.1993 120.708 30.6413 120.978 30.3016C122.157 28.8215 125.717 24.8908 125.987 24.8908C126.011 24.8908 126.011 24.8908 126.011 24.8908C126.011 24.818 126.011 24.7453 126.011 24.6725C126.011 24.4056 125.962 24.357 125.962 24.1629C125.962 24.0659 125.987 23.9446 126.011 23.7747C125.864 24.1387 125.398 24.5997 125.103 24.8908ZM118.818 41.7782C118.499 43.0642 117.247 44.9325 116.117 44.9325C115.283 44.9325 115.135 43.6708 115.135 43.234C115.135 41.0988 115.577 39.085 116.608 37.2409C117.369 35.8579 118.892 32.7765 119.505 32.7765C120.045 32.7765 119.923 34.0624 119.923 34.3051C119.923 34.7175 119.898 35.13 119.874 35.5182C119.874 35.5182 119.874 35.5425 119.874 35.5668C119.874 36.0035 119.358 39.8614 118.818 41.7782Z" fill="url(#paint6_linear)"/>
<path d="M138.343 24.6482C136.797 25.8371 135.618 26.007 134.022 27.1716C133.875 27.2687 133.728 27.3172 133.605 27.3172C133.384 27.3172 133.212 27.1473 133.212 26.8562C133.212 26.6378 133.237 26.4437 133.237 26.2496C133.237 24.721 132.353 23.4108 132.132 21.9307C131.96 20.8874 131.248 20.4506 130.119 20.4506C128.474 20.4506 127.148 21.2028 126.264 22.4888C125.847 23.0953 124.718 25.0607 124.718 26.4194C124.718 27.2444 125.282 27.8995 125.921 27.8995C126.755 27.8995 128.965 26.1283 130.389 25.1335C130.487 25.0849 130.561 25.0607 130.634 25.0607C131.175 25.0607 130.929 27.3172 131.15 28.2149C131.199 28.4576 131.248 28.7002 131.248 28.9186C131.248 29.7435 130.831 30.4472 130.266 31.1266C129.186 32.4125 128.179 33.747 127.246 35.13C125.651 37.5078 124.3 39.7158 124.3 42.9186C124.3 44.617 125.528 46.0001 127.124 46.0001C127.369 46.0001 127.615 45.9758 127.86 45.8787C132.255 44.3259 133.433 41.8267 133.433 35.494C133.433 33.6985 133.384 31.903 133.384 30.1317C133.384 27.8752 135.176 27.1716 137.239 26.0555C138.687 25.2791 138.638 24.4056 138.343 24.6482ZM130.929 40.929C130.389 42.6274 129.284 43.9619 127.541 44.6413C127.197 44.7869 126.878 44.8597 126.608 44.8597C125.626 44.8597 125.184 44.0347 125.184 42.5546C125.184 42.0694 125.258 41.6084 125.405 41.1716C126.633 37.702 128.474 34.5234 130.708 31.5876C130.806 31.4662 131.052 31.442 131.248 31.3692C131.395 31.8302 131.42 32.2184 131.42 32.7279C131.42 33.286 131.42 33.8683 131.42 34.4506C131.518 35.1786 131.567 35.9307 131.567 36.6586C131.567 38.0902 131.371 39.5217 130.929 40.929ZM131.273 23.5321C129.603 24.6482 127.885 25.7401 126.166 26.8077C126.142 26.8319 126.092 26.8319 126.068 26.8319C125.921 26.8319 125.675 26.7349 125.675 26.4194C126.166 24.2115 127.639 21.0087 130.389 21.0087C131.101 21.0087 131.616 21.5667 131.616 22.7314C131.616 23.0226 131.469 23.4108 131.273 23.5321Z" fill="url(#paint7_linear)"/>
<path d="M153.21 24.5269C153.161 24.4298 153.088 24.3813 153.014 24.3813C152.474 24.3813 150.362 27.7054 149.159 29.4281C148.693 30.1075 147.662 31.2721 146.827 31.2721C146.164 31.2721 145.943 30.059 145.943 29.4038C145.943 27.8995 146.631 26.3709 147.048 24.8666C147.122 24.5997 147.171 24.357 147.171 24.1387C147.171 23.4593 146.336 22.6343 145.256 22.6343C144.863 22.6343 144.47 22.7799 144.126 23.0953C142.874 24.26 141.696 25.4732 140.419 26.6135C140.051 26.929 139.756 27.4628 139.192 27.4628C138.75 27.4628 138.627 26.1283 138.627 25.8371C138.627 23.8475 141.156 20.1595 142.703 20.1595C143.586 20.1595 143.93 20.9116 143.93 21.5425C143.93 21.6881 143.906 21.8579 143.906 22.0035C143.906 22.0763 144.102 22.3674 144.249 22.3674C144.618 22.3674 144.74 21.6638 144.74 21.3241C144.74 20.4021 143.709 19.4073 142.752 19.4073C140.665 19.4073 138.652 22.5858 137.621 24.6967C137.375 25.2063 137.277 25.8371 137.277 26.3952C137.277 27.5356 137.817 28.4333 139.192 28.4333C140.542 28.4333 141.696 26.5893 142.825 25.4246C142.997 25.2548 143.611 24.6239 143.906 24.6239C143.955 24.6239 144.176 24.7453 144.176 24.7938C143.93 25.9584 143.66 27.2201 143.66 28.409C143.66 30.3259 144.544 32.6309 146.582 32.6309C147.564 32.6309 148.546 32 149.258 31.0052C150.461 29.3311 151.664 27.6326 152.818 25.9099C153.014 25.6187 153.309 25.3276 153.333 24.9394C153.333 24.818 153.284 24.6725 153.21 24.5269Z" fill="url(#paint8_linear)"/>
<defs>
<linearGradient id="paint0_linear" x1="33.3025" y1="21.5428" x2="2.30902" y2="28.8857" gradientUnits="userSpaceOnUse">
<stop stop-color="#018EBE"/>
<stop offset="0.0001" stop-color="#018EBE" stop-opacity="0.4"/>
<stop offset="1" stop-color="#018EBE"/>
</linearGradient>
<linearGradient id="paint1_linear" x1="97.5024" y1="6.63865" x2="97.5024" y2="38.1053" gradientUnits="userSpaceOnUse">
<stop stop-color="#1B1B1B"/>
<stop offset="1" stop-color="#018EBE"/>
</linearGradient>
<linearGradient id="paint2_linear" x1="97.5024" y1="6.63865" x2="97.5024" y2="38.1053" gradientUnits="userSpaceOnUse">
<stop stop-color="#1B1B1B"/>
<stop offset="1" stop-color="#018EBE"/>
</linearGradient>
<linearGradient id="paint3_linear" x1="97.5024" y1="6.63865" x2="97.5024" y2="38.1053" gradientUnits="userSpaceOnUse">
<stop stop-color="#1B1B1B"/>
<stop offset="1" stop-color="#018EBE"/>
</linearGradient>
<linearGradient id="paint4_linear" x1="97.5024" y1="6.63865" x2="97.5024" y2="38.1053" gradientUnits="userSpaceOnUse">
<stop stop-color="#1B1B1B"/>
<stop offset="1" stop-color="#018EBE"/>
</linearGradient>
<linearGradient id="paint5_linear" x1="97.5024" y1="6.63865" x2="97.5024" y2="38.1053" gradientUnits="userSpaceOnUse">
<stop stop-color="#1B1B1B"/>
<stop offset="1" stop-color="#018EBE"/>
</linearGradient>
<linearGradient id="paint6_linear" x1="97.5024" y1="6.63865" x2="97.5024" y2="38.1053" gradientUnits="userSpaceOnUse">
<stop stop-color="#1B1B1B"/>
<stop offset="1" stop-color="#018EBE"/>
</linearGradient>
<linearGradient id="paint7_linear" x1="97.5024" y1="6.63865" x2="97.5024" y2="38.1053" gradientUnits="userSpaceOnUse">
<stop stop-color="#1B1B1B"/>
<stop offset="1" stop-color="#018EBE"/>
</linearGradient>
<linearGradient id="paint8_linear" x1="97.5024" y1="6.63865" x2="97.5024" y2="38.1053" gradientUnits="userSpaceOnUse">
<stop stop-color="#1B1B1B"/>
<stop offset="1" stop-color="#018EBE"/>
</linearGradient>
</defs>
</svg>
