<svg width="66" height="64" viewBox="0 0 66 64" fill="none" xmlns="http://www.w3.org/2000/svg">
<path fill-rule="evenodd" clip-rule="evenodd" d="M39.5994 36.6696C39.5994 33.6472 37.3832 31.2 34.6494 31.2H31.3494C28.6157 31.2 26.3994 33.6472 26.3994 36.6696V43.9625C26.3994 46.9822 28.6165 49.4321 31.3494 49.4321H34.6494C37.3823 49.4321 39.5994 46.9822 39.5994 43.9625V36.6696ZM31.3497 34.8463H34.6497C35.5614 34.8463 36.2997 35.6616 36.2997 36.6696V43.9624C36.2997 44.9683 35.56 45.7856 34.6497 45.7856H31.3497C30.4394 45.7856 29.6997 44.9683 29.6997 43.9624V36.6696C29.6997 35.6616 30.438 34.8463 31.3497 34.8463Z" fill="#018EBE"/>
<path d="M34.6962 42.1214H61.05C63.7838 42.1214 66 39.6742 66 36.6518V18.4196C66 15.3972 63.7838 12.95 61.05 12.95H4.95C2.21624 12.95 0 15.3972 0 18.4196V36.6518C0 39.6742 2.21624 42.1214 4.95 42.1214H28.0005C28.9118 42.1214 29.6505 41.3051 29.6505 40.2982C29.6505 39.2913 28.9118 38.475 28.0005 38.475H4.95C4.03827 38.475 3.3 37.6598 3.3 36.6518V18.4196C3.3 17.4116 4.03827 16.5964 4.95 16.5964H61.05C61.9617 16.5964 62.7 17.4116 62.7 18.4196V36.6518C62.7 37.6598 61.9617 38.475 61.05 38.475H34.6962C33.7849 38.475 33.0462 39.2913 33.0462 40.2982C33.0462 41.3051 33.7849 42.1214 34.6962 42.1214Z" fill="#018EBE"/>
<path d="M3.29932 40.2983V58.5305C3.29932 61.5529 5.51556 64.0001 8.24932 64.0001H57.7493C60.4831 64.0001 62.6993 61.5529 62.6993 58.5305V47.5912C62.6993 46.5842 61.9606 45.768 61.0493 45.768C60.1381 45.768 59.3993 46.5842 59.3993 47.5912V58.5305C59.3993 59.5385 58.661 60.3537 57.7493 60.3537H8.24932C7.33759 60.3537 6.59932 59.5385 6.59932 58.5305V40.2983C6.59932 39.2914 5.86059 38.4751 4.94932 38.4751C4.03805 38.4751 3.29932 39.2914 3.29932 40.2983Z" fill="#018EBE"/>
<path d="M50 18V6C50 2.6845 47.6494 0 44.75 0H20.25C17.3506 0 15 2.6845 15 6C15 7.10457 15.7835 8 16.75 8C17.7165 8 18.5 7.10457 18.5 6C18.5 4.89426 19.283 4 20.25 4H44.75C45.717 4 46.5 4.89426 46.5 6V18C46.5 19.1046 47.2835 20 48.25 20C49.2165 20 50 19.1046 50 18Z" fill="#018EBE"/>
</svg>
