<svg width="66" height="64" viewBox="0 0 66 64" fill="none" xmlns="http://www.w3.org/2000/svg">
<path d="M19.4237 0C17.888 0 16.6431 1.28781 16.6431 2.8764V12.2247C16.6431 13.8133 17.888 15.1011 19.4237 15.1011H22.8996V30.3256C21.417 31.8614 16.1266 37.3489 11.1198 42.6244C8.60988 45.2689 6.16686 47.8649 4.30942 49.8848C3.38163 50.8937 2.59333 51.766 2.0138 52.4317C1.7249 52.7636 1.47952 53.0536 1.29175 53.2885C1.14345 53.474 0.924711 53.7525 0.800989 54.0085C-0.117261 55.9082 -0.0374177 57.7726 0.725556 60.1402C1.47704 62.4722 3.40459 63.4985 4.06078 63.7943C4.41358 63.9533 4.76011 64 5.05083 64H47.9256C48.6935 64 49.3159 63.3561 49.3159 62.5618C49.3159 61.7675 48.6935 61.1236 47.9256 61.1236H5.09925C4.6335 60.8989 3.7142 60.3188 3.36352 59.2306C2.74617 57.3148 2.8136 56.3043 3.26569 55.3419C3.26775 55.3394 3.27188 55.3337 3.27852 55.3247C3.29987 55.2955 3.34712 55.231 3.43454 55.1217C3.58627 54.9319 3.80213 54.6759 4.08009 54.3566C4.63427 53.72 5.40217 52.8699 6.32414 51.8673C8.16622 49.8641 10.597 47.281 13.104 44.6395C18.1166 39.3579 23.4163 33.8615 24.8798 32.3454C25.4145 31.7916 25.6802 31.0674 25.6802 30.3256V15.1011C25.6802 13.5125 24.4353 12.2247 22.8996 12.2247H19.4237V2.8764H40.9739V12.2247H38.1933C36.6575 12.2247 35.4126 13.5125 35.4126 15.1011V30.3495C35.4126 31.084 35.6842 31.7906 36.1717 32.3246L47.61 44.8527C48.1372 45.4301 49.0172 45.4561 49.5754 44.9108C50.1336 44.3654 50.1588 43.4551 49.6316 42.8777L38.1933 30.3495V15.1011H40.9739C42.5097 15.1011 43.7546 13.8133 43.7546 12.2247V2.8764C43.7546 1.28781 42.5097 0 40.9739 0H19.4237Z" fill="#018EBE"/>
<path fill-rule="evenodd" clip-rule="evenodd" d="M50.7063 7.19101C49.9385 7.19101 49.316 7.83492 49.316 8.62921C49.316 9.42351 49.9385 10.0674 50.7063 10.0674L52.0967 10.0674V58.9663C52.0967 60.5549 53.3416 61.8427 54.8773 61.8427H60.4387C61.9744 61.8427 63.2193 60.5549 63.2193 58.9663V10.0674H64.6097C65.3775 10.0674 66 9.42351 66 8.62921C66 7.83492 65.3775 7.19101 64.6097 7.19101H50.7063ZM60.4387 10.0674H54.8773V58.9663H60.4387V10.0674Z" fill="#018EBE"/>
<path d="M17.3383 53.2135C17.3383 52.4192 17.9608 51.7753 18.7286 51.7753H41.6691C42.437 51.7753 43.0595 52.4192 43.0595 53.2135C43.0595 54.0078 42.437 54.6517 41.6691 54.6517H18.7286C17.9608 54.6517 17.3383 54.0078 17.3383 53.2135Z" fill="#018EBE"/>
</svg>
