<svg width="66" height="64" viewBox="0 0 66 64" fill="none" xmlns="http://www.w3.org/2000/svg">
<path fill-rule="evenodd" clip-rule="evenodd" d="M54.8787 27.383C55.3043 25.6622 55.5242 23.9835 55.5242 22.3521C55.5242 10.0056 45.4984 0 33.1271 0C20.7552 0 10.7267 10.0062 10.7267 22.3521C10.7267 24.1324 10.9925 25.9717 11.5045 27.8631C13.0051 33.4056 16.5448 39.2299 21.5011 45.1146C21.5663 45.192 21.6316 45.2692 21.6971 45.3463C9.54307 46.5856 1.00195 49.8509 1.00195 54.3971C1.00195 60.2637 15.2251 63.9999 33.0758 63.9999C50.9265 63.9999 65.1496 60.2637 65.1496 54.3971C65.1496 50.4977 59.4498 47.7689 50.1941 46.1531C49.3216 46.0008 48.4907 46.5831 48.338 47.4538C48.1854 48.3245 48.769 49.1538 49.6414 49.3061C57.2848 50.6405 61.9422 52.8702 61.9422 54.3971C61.9422 55.496 59.204 57.1961 54.2136 58.507C48.6793 59.9608 41.1369 60.799 33.0758 60.799C25.0146 60.799 17.4723 59.9608 11.938 58.507C6.94751 57.1961 4.20934 55.496 4.20934 54.3971C4.20934 53.2985 6.94721 51.5991 11.9378 50.2889C15.4086 49.3777 19.6696 48.7085 24.3532 48.3362C25.8036 49.8978 27.2887 51.3893 28.774 52.7952C29.642 53.6168 30.4489 54.3507 31.1743 54.9875C31.6132 55.3727 31.9299 55.6421 32.1044 55.7862L33.1236 56.6283L34.1457 55.7896C34.3203 55.6463 34.6372 55.3785 35.0762 54.9955C35.8018 54.3623 36.6087 53.6323 37.4769 52.8145C39.9554 50.4798 42.4336 47.9049 44.7503 45.1604C49.8637 39.1028 53.4653 33.099 54.8787 27.383ZM23.9564 43.055C24.5171 43.7207 25.0881 44.3768 25.6668 45.0221C28.0414 44.874 30.5214 44.7976 33.0758 44.7976C33.9615 44.7976 34.6795 45.5141 34.6795 46.398C34.6795 47.2819 33.9615 47.9985 33.0758 47.9985C31.5446 47.9985 30.0322 48.0287 28.5488 48.0876C29.3554 48.9072 30.1683 49.7033 30.9812 50.4728C31.7546 51.2048 32.4763 51.8635 33.1303 52.4411C33.7831 51.8677 34.5034 51.2138 35.2753 50.4867C37.6702 48.2307 40.0655 45.7419 42.2973 43.098C47.1221 37.3824 50.4913 31.766 51.7648 26.616C52.1304 25.1375 52.3169 23.7146 52.3169 22.3521C52.3169 11.7735 43.727 3.20093 33.1271 3.20093C22.5265 3.20093 13.9341 11.7742 13.9341 22.3521C13.9341 23.8374 14.1596 25.3983 14.6009 27.0281C15.9573 32.0383 19.2738 37.4953 23.9564 43.055ZM39.5406 22.3754C39.5406 18.8409 36.6683 15.9736 33.1258 15.9736C32.2401 15.9736 31.5221 15.257 31.5221 14.3731C31.5221 13.4892 32.2401 12.7726 33.1258 12.7726C38.4399 12.7726 42.748 17.0732 42.748 22.3754C42.748 27.6798 38.4409 31.9782 33.1258 31.9782C27.8107 31.9782 23.5037 27.6798 23.5037 22.3754C23.5037 21.4915 24.2217 20.775 25.1074 20.775C25.9931 20.775 26.7111 21.4915 26.7111 22.3754C26.7111 25.912 29.5821 28.7773 33.1258 28.7773C36.6695 28.7773 39.5406 25.912 39.5406 22.3754Z" fill="#018EBE"/>
</svg>
