<svg width="66" height="64" viewBox="0 0 66 64" fill="none" xmlns="http://www.w3.org/2000/svg">
<path fill-rule="evenodd" clip-rule="evenodd" d="M62.7191 33.1547C63.6199 34.0538 64.126 35.2777 64.126 36.5512V59.1866C64.126 61.8375 61.9751 63.9856 59.3164 63.9904L36.6251 64C35.3511 64 34.1259 63.4934 33.2185 62.5926L15.9702 45.3773C14.9131 50.405 14.332 56.0222 14.332 62.2545C14.332 63.1389 13.6136 63.8558 12.7275 63.8558C11.8413 63.8558 11.123 63.1389 11.123 62.2545C11.123 54.9641 11.8947 48.4556 13.2866 42.6987L1.41262 30.8475C-0.470619 28.9729 -0.470618 25.9264 1.41109 24.0533L24.0986 1.40814C25.98 -0.469379 29.0271 -0.469379 30.9084 1.40814L55.4643 25.9146C55.9235 24.7526 56.3322 23.5943 56.678 22.4589C59.497 13.205 57.8579 7.97132 51.2946 7.97132C48.882 7.97132 46.5834 8.28145 44.4003 8.87565C43.5454 9.10834 42.6633 8.60532 42.4302 7.75213C42.197 6.89894 42.701 6.01866 43.556 5.78597C46.013 5.11723 48.5954 4.76879 51.2946 4.76879C60.7075 4.76879 63.0968 12.3981 59.7483 23.3904C59.2501 25.0259 58.6328 26.7016 57.9256 28.371L62.7191 33.1547ZM14.2547 39.1358L3.68032 28.5816C3.05262 27.9568 3.05262 26.9425 3.67881 26.3192L26.3678 3.67259C26.9959 3.04582 28.0112 3.04582 28.6394 3.67267L54.0961 29.0782C51.2075 35.2354 47.1926 41.0103 43.9035 43.5144C43.1989 44.0508 43.0635 45.0556 43.601 45.7587C44.1384 46.4618 45.1453 46.597 45.8498 46.0606C49.3848 43.3694 53.4546 37.6763 56.5025 31.4797L60.45 35.4193C60.748 35.7167 60.917 36.1255 60.917 36.5512V59.1866C60.917 60.0703 60.2001 60.7863 59.3129 60.7879L36.6244 60.7975C36.2009 60.7975 35.7888 60.6271 35.4846 60.3251L16.8485 41.7246C17.6554 38.7581 18.6387 36.0204 19.7727 33.5052C20.9503 30.8933 22.2064 28.7203 23.4551 26.9662C24.1869 25.9383 24.7393 25.2908 25.0261 25.0046C25.6527 24.3792 25.6527 23.3654 25.0261 22.7401C24.3995 22.1147 23.3836 22.1147 22.757 22.7401C22.346 23.1502 21.6773 23.9341 20.8392 25.1114C19.4713 27.0327 18.1109 29.3864 16.8463 32.1911C15.8709 34.3546 15.0023 36.6685 14.2547 39.1358ZM44.8766 49.5912C47.5332 49.5912 49.6901 47.4387 49.6901 44.7874C49.6901 43.9031 50.4085 43.1862 51.2946 43.1862C52.1807 43.1862 52.8991 43.9031 52.8991 44.7874C52.8991 49.2074 49.3055 52.7937 44.8766 52.7937C40.4478 52.7937 36.8542 49.2074 36.8542 44.7874C36.8542 40.3675 40.4478 36.7811 44.8766 36.7811C45.7628 36.7811 46.4811 37.498 46.4811 38.3824C46.4811 39.2667 45.7628 39.9836 44.8766 39.9836C42.2201 39.9836 40.0632 42.1362 40.0632 44.7874C40.0632 47.4387 42.2201 49.5912 44.8766 49.5912Z" fill="#018EBE"/>
</svg>
