<svg width="66" height="64" viewBox="0 0 66 64" fill="none" xmlns="http://www.w3.org/2000/svg">
<path fill-rule="evenodd" clip-rule="evenodd" d="M54.9231 38.2544C54.9231 33.344 51.1359 26.1042 44.6964 17.6516C40.6769 12.3755 36.1384 7.28032 32.5373 3.60697C28.9635 7.25824 24.4172 12.3746 20.4084 17.65C13.9857 26.1022 10.2081 33.3427 10.2081 38.2544C10.2081 43.8071 12.2437 49.038 15.8681 53.0927C16.4552 53.7496 16.3976 54.757 15.7395 55.343C15.0813 55.9289 14.0718 55.8715 13.4847 55.2146C9.34289 50.5811 7.01416 44.5969 7.01416 38.2544C7.01416 32.4162 11.0339 24.7116 17.8635 15.724C22.234 9.97241 27.2085 4.42902 30.97 0.652923C31.8428 -0.218101 33.2308 -0.218101 34.1064 0.655684C37.9 4.46027 42.8602 9.97476 47.2389 15.7224C54.0869 24.7112 58.117 32.4153 58.117 38.2544C58.117 52.3373 46.6768 63.7544 32.5656 63.7544C27.7155 63.7544 23.0613 62.4034 19.0446 59.8937C18.2971 59.4266 18.0705 58.4432 18.5385 57.6971C19.0065 56.9511 19.992 56.7249 20.7395 57.192C24.2512 59.3862 28.3187 60.5669 32.5656 60.5669C44.9128 60.5669 54.9231 50.5769 54.9231 38.2544ZM16.5947 38.8512C16.5947 47.6514 23.7463 54.7887 32.5643 54.7887C33.4463 54.7887 34.1613 55.5022 34.1613 56.3824C34.1613 57.2626 33.4463 57.9762 32.5643 57.9762C21.9824 57.9762 13.4007 49.4118 13.4007 38.8512C13.4007 37.971 14.1157 37.2574 14.9977 37.2574C15.8797 37.2574 16.5947 37.971 16.5947 38.8512Z" fill="#018EBE"/>
</svg>
